<svg xmlns="http://www.w3.org/2000/svg" xmlns:xlink="http://www.w3.org/1999/xlink" xmlns:inkscape="http://www.inkscape.org/namespaces/inkscape" version="1.1" width="449.03999" height="89.04" viewBox="0 0 449.03999 89.04">
<defs>
<clipPath id="clip_0">
<path transform="matrix(.24,0,0,.24,0,0)" d="M0 0H1868.9942V372H0Z" clip-rule="evenodd"/>
</clipPath>
</defs>
<g clip-path="url(#clip_0)">
<path transform="matrix(.7195416,0,0,.7195416,115.50566,209.74637)" d="M400.33-260.22H460.33V-200.22H400.33Z" fill="#00994d"/>
<path transform="matrix(.69502386,.18623106,-.18623106,.69502386,86.81096,121.59692)" d="M460.33-212.71C460.32997-212.21755 460.2339-211.72982 460.04173-211.24681 459.84959-210.76381 459.56504-210.29483 459.1881-209.83986 458.81123-209.38489 458.34916-208.95267 457.80195-208.5432 457.2548-208.13375 456.63298-207.75492 455.93653-207.4067 455.24009-207.05847 454.4824-206.74758 453.66346-206.47397 452.84455-206.20037 451.9801-205.96935 451.07017-205.78089 450.16023-205.59244 449.22227-205.45018 448.2563-205.35411 447.2903-205.25804 446.31489-205.21 445.33-205.21 444.34507-205.21 443.3696-205.25804 442.4036-205.3541 441.4376-205.45018 440.4996-205.59244 439.58967-205.78089 438.67973-205.96935 437.81529-206.20037 436.99635-206.47397 436.17747-206.74758 435.41978-207.05847 434.72334-207.4067 434.0269-207.75492 433.40507-208.13375 432.85789-208.5432 432.31068-208.95267 431.84864-209.38489 431.47175-209.83986 431.09486-210.29483 430.81034-210.76381 430.61817-211.24683 430.42607-211.72982 430.33-212.21755 430.33-212.71 430.33-213.20246 430.42607-213.69019 430.61817-214.17317 430.81034-214.65616 431.09486-215.12514 431.47175-215.58011 431.84864-216.03508 432.31068-216.46729 432.85789-216.87676 433.40507-217.28621 434.0269-217.66506 434.72334-218.01329 435.41978-218.36151 436.17747-218.67241 436.99635-218.94602 437.81529-219.2196 438.67973-219.45063 439.58967-219.63909 440.4996-219.82755 441.4376-219.9698 442.4036-220.06589 443.3696-220.16196 444.34507-220.20999 445.33-220.21 446.31489-220.20999 447.29035-220.16196 448.25633-220.06589 449.2223-219.9698 450.16023-219.82755 451.07017-219.63909 451.9801-219.45063 452.84455-219.2196 453.66346-218.94602 454.4824-218.67241 455.24009-218.36151 455.93653-218.01329 456.63298-217.66506 457.2548-217.28621 457.80198-216.87676 458.34919-216.46729 458.81123-216.03508 459.1881-215.58011 459.56504-215.12514 459.84959-214.65616 460.0417-214.17317 460.23387-213.69019 460.32997-213.20246 460.33-212.71Z" fill="#cccc00"/>
<path transform="matrix(.69502386,-.18623106,.18623106,.69502386,170.97097,282.48683)" d="M409.61-255.08H435.34999V-229.34H409.61Z" fill="#ea6b66"/>
<path transform="matrix(.7195416,0,0,.7195416,115.50566,209.74637)" stroke-width="1" stroke-linecap="butt" stroke-miterlimit="10" stroke-linejoin="miter" fill="none" stroke="#000000" d="M380.51-215C386.83668-215 390-210.83333 390-202.5 390-194.16667 398.9-190 416.7-190 434.5-190 443.39668-192.78334 443.39-198.35"/>
<path transform="matrix(.7195416,0,0,.7195416,115.50566,209.74637)" d="M443.39-204.35 445.39-198.35H441.39L443.39-204.35Z"/>
<path transform="matrix(.7195416,0,0,.7195416,115.50566,209.74637)" stroke-width="1" stroke-linecap="butt" stroke-miterlimit="10" stroke-linejoin="miter" fill="none" stroke="#000000" d="M443.39-204.35 445.39-198.35H441.39L443.39-204.35Z"/>
<path transform="matrix(.7195416,0,0,.7195416,115.50566,209.74637)" d="M380.149-225.58C380.53245-225.58078 380.90476-225.57866 381.266-225.57364L381.25209-224.57373C380.89604-224.57868 380.529-224.58077 380.151-224.58L380.149-225.58ZM382.31785-225.54982C382.65794-225.53897 382.98686-225.5252 383.30464-225.50853L383.25227-224.5099C382.94105-224.52623 382.61894-224.5397 382.28593-224.55034L382.31785-225.54982ZM384.22685-225.44962C384.60249-225.421 384.96049-225.3877 385.30085-225.34969L385.18983-224.35588C384.86116-224.3926 384.51484-224.4248 384.1509-224.45252L384.22685-225.44962ZM386.35984-225.20717C386.69389-225.1536 387.00666-225.09421 387.2982-225.02899L387.07987-224.0531C386.80818-224.11388 386.51539-224.16944 386.2015-224.21977L386.35984-225.20717ZM388.3527-224.73676C388.7348-224.60565 389.0647-224.45819 389.34239-224.29436L388.8342-223.43309C388.61488-223.5625 388.3462-223.68175 388.02818-223.79087L388.3527-224.73676ZM390.23283-223.47563C390.41096-223.19101 390.5-222.88246 390.5-222.55 390.5-222.55866 390.49885-222.56586 390.4965-222.57161L389.56999-222.19539C389.52333-222.31027 389.5-222.42848 389.5-222.55 389.5-222.69104 389.4617-222.82276 389.3851-222.94515L390.23283-223.47563ZM390.8745-222.30294C391.15977-222.16335 391.55888-222.02999 392.07188-221.90283L391.83134-220.93219C391.24937-221.07643 390.7839-221.23394 390.43495-221.40471L390.8745-222.30294ZM392.77888-221.74626C393.03544-221.69519 393.3114-221.64563 393.60679-221.59757L393.4462-220.61054C393.13954-220.66043 392.85203-220.7121 392.58363-220.76552L392.77888-221.74626ZM394.55415-221.45752C394.89036-221.41225 395.2455-221.36859 395.6197-221.32659L395.50813-220.33284C395.12608-220.37575 394.76359-220.42029 394.42066-220.46646L394.55415-221.45752ZM396.8029-221.20502C397.15278-221.17209 397.5166-221.1403 397.89436-221.10965L397.81349-220.11292C397.4318-220.14389 397.0637-220.17606 396.7092-220.20941L396.8029-221.20502ZM398.72517-221.04572 399.60426-220.98491 399.53523-219.98729 398.65614-220.0481 398.72517-221.04572ZM400.51893-220.92812 401.4827-220.87448 401.42716-219.87604 400.46339-219.92967 400.51893-220.92812ZM402.48323-220.82472 403.53169-220.77825 403.48738-219.77922 402.4389-219.8257 402.48323-220.82472ZM404.61769-220.73554 405.75086-220.69623 405.7162-219.69684 404.583-219.73615 404.61769-220.73554ZM406.92247-220.66062 407.80378-220.63687 407.77687-219.63724 406.89555-219.66098 406.92247-220.66062ZM408.6898-220.61545 409.6001-220.5958 409.5785-219.59604 408.66819-219.61569 408.6898-220.61545ZM410.52967-220.578 411.4833-220.56201 411.46653-219.56217 410.51289-219.57816 410.52967-220.578ZM412.4564-220.54788 413.4533-220.53556 413.44093-219.53565 412.444-219.54798 412.4564-220.54788ZM414.4699-220.52507 415.51017-220.5164 415.5018-219.51644 414.46156-219.5251 414.4699-220.52507ZM416.57023-220.50959 417.6538-220.50458 417.64918-219.50458 416.56559-219.50959 416.57023-220.50959ZM418.75733-220.50139 419.8842-220.50005 419.88298-219.50005 418.7561-219.50139 418.75733-220.50139ZM421.01255-220.50267 422.12586-220.51435 422.13636-219.5144 421.02305-219.50273 421.01255-220.50267ZM423.21107-220.53513C423.57048-220.54361 423.9257-220.5536 424.2767-220.56511L424.30949-219.56566C423.9542-219.55402 423.59593-219.54393 423.23469-219.5354L423.21107-220.53513ZM425.32057-220.60427C425.66545-220.61887 426.00614-220.63498 426.34266-220.65258L426.3949-219.65395C426.0539-219.63611 425.70988-219.61985 425.36286-219.60515L425.32057-220.60427ZM427.34303-220.71002C427.6727-220.7307 427.99888-220.7529 428.32157-220.77664L428.39494-219.77933C428.06886-219.75534 427.73908-219.7329 427.40559-219.71198L427.34303-220.71002ZM429.27836-220.85237C429.59266-220.87906 429.9043-220.90737 430.2133-220.93727L430.30967-219.94191C429.9986-219.9118 429.68305-219.88315 429.36296-219.85597L429.27836-220.85237ZM431.12648-221.03125C431.42668-221.06404 431.7238-221.09842 432.01777-221.13437L432.13917-220.14176C431.8419-220.1054 431.5405-220.07054 431.23506-220.03717L431.12648-221.03125ZM432.8872-221.24655C433.22956-221.2931 433.56694-221.34186 433.8993-221.3928L434.05079-220.40435C433.71318-220.35259 433.3702-220.30303 433.02198-220.25568L432.8872-221.24655ZM435.00968-221.57447C435.37269-221.63774 435.7293-221.70386 436.07963-221.77281L436.2728-220.79164C435.9159-220.72138 435.5521-220.65395 435.18138-220.58933L435.00968-221.57447ZM437.10917-221.98777C437.44526-222.06209 437.7749-222.13925 438.09815-222.21924L438.33839-221.2485C438.00746-221.16661 437.66969-221.08756 437.3251-221.01136L437.10917-221.98777ZM439.04658-222.46721C439.3557-222.55254 439.65834-222.64066 439.95445-222.73157L440.24797-221.7756C439.94294-221.68195 439.63117-221.59116 439.31263-221.50325L439.04658-222.46721ZM440.82164-223.01219C441.10389-223.10843 441.3794-223.20735 441.64817-223.30898L442.0018-222.37361C441.72248-222.268 441.43666-222.16536 441.14433-222.06569L440.82164-223.01219ZM442.43397-223.62181C442.7727-223.76377 443.0998-223.91049 443.4152-224.06203L443.84825-223.16066C443.5174-223.00173 443.1748-222.848 442.82044-222.69951L442.43397-223.62181ZM444.37187-224.55617C444.67707-224.72574 444.9694-224.90052 445.2488-225.08052L445.79039-224.23986C445.49256-224.04799 445.1816-223.86203 444.8575-223.68199L444.37187-224.55617ZM446.04634-225.63459C446.29844-225.82378 446.53797-226.01822 446.76487-226.2179L447.4255-225.46717C447.17927-225.25048 446.91963-225.03968 446.64656-224.83475L446.04634-225.63459ZM447.40513-226.83005C447.6053-227.03858 447.79295-227.2522 447.96809-227.47092L448.74867-226.84589C448.55479-226.60373 448.34739-226.3676 448.1265-226.13751L447.40513-226.83005ZM448.52006-228.2418C448.6905-228.50986 448.8441-228.78485 448.9808-229.06682L449.88059-228.63051C449.72703-228.31385 449.5548-228.0054 449.36393-227.70522L448.52006-228.2418ZM449.34065-229.93393C449.44398-230.23043 449.53059-230.53421 449.60047-230.84529L450.5761-230.62609C450.49784-230.27777 450.4008-229.93737 450.2849-229.60486L449.34065-229.93393ZM449.76036-231.80307C449.797-232.13106 449.81678-232.46642 449.81968-232.80916L450.8196-232.80074C450.81645-232.42334 450.79463-232.05376 450.75419-231.69199L449.76036-231.80307Z"/>
<path transform="matrix(.7195416,0,0,.7195416,115.50566,209.74637)" d="M450.33-238.88 452.32-232.88 448.32-232.89 450.33-238.88Z"/>
<path transform="matrix(.7195416,0,0,.7195416,115.50566,209.74637)" stroke-width="1" stroke-linecap="butt" stroke-miterlimit="10" stroke-linejoin="miter" fill="none" stroke="#000000" d="M450.33-238.88 452.32-232.88 448.32-232.89 450.33-238.88Z"/>
<path transform="matrix(.7195416,0,0,.7195416,115.50566,209.74637)" stroke-width="1" stroke-linecap="butt" stroke-miterlimit="10" stroke-linejoin="miter" fill="none" stroke="#000000" d="M380.03-245C386.67668-245 390-249.16667 390-257.5 390-265.83335 394.85-270 404.55-270 414.25-270 419.11003-267.25334 419.13-261.76"/>
<path transform="matrix(.7195416,0,0,.7195416,115.50566,209.74637)" d="M419.15-255.76 417.13-261.75 421.13-261.77 419.15-255.76Z"/>
<path transform="matrix(.7195416,0,0,.7195416,115.50566,209.74637)" stroke-width="1" stroke-linecap="butt" stroke-miterlimit="10" stroke-linejoin="miter" fill="none" stroke="#000000" d="M419.15-255.76 417.13-261.75 421.13-261.77 419.15-255.76Z"/>
<path transform="matrix(.7195416,0,0,.7195416,115.1459,209.3866)" d="M327.53-290H373.12998C373.60273-290 374.07093-289.9539 374.53459-289.86164 374.99824-289.7694 375.44847-289.63285 375.88523-289.4519 376.32203-289.271 376.73698-289.04924 377.13008-288.78657 377.52314-288.5239 377.8868-288.22544 378.22114-287.89115 378.55543-287.55686 378.85389-287.19316 379.11653-286.80006 379.37916-286.40699 379.60093-285.99208 379.78187-285.5553 379.9628-285.11854 380.09938-284.6683 380.1916-284.20463 380.28385-283.74095 380.33-283.27275 380.33-282.8V-177.2C380.33-176.72724 380.28385-176.259 380.1916-175.79532 380.0994-175.33165 379.96284-174.88144 379.7819-174.44466 379.60096-174.00789 379.37919-173.59296 379.11656-173.19988 378.85389-172.8068 378.55543-172.44312 378.22114-172.10883 377.8868-171.77454 377.52314-171.47608 377.13008-171.21343 376.73698-170.95076 376.32203-170.72898 375.88526-170.54807 375.44847-170.36714 374.99824-170.23058 374.53459-170.13835 374.07093-170.04613 373.60273-170.00002 373.12998-170H327.53C327.05726-170.00002 326.58903-170.04613 326.12535-170.13835 325.66166-170.23058 325.21144-170.36714 324.77464-170.54807 324.33787-170.72898 323.92295-170.95076 323.52989-171.21343 323.13679-171.47608 322.7731-171.77454 322.4388-172.10883 322.1045-172.44312 321.80604-172.8068 321.54338-173.19988 321.2807-173.59296 321.05894-174.00789 320.87803-174.44466 320.6971-174.88144 320.56056-175.33167 320.46833-175.79534 320.37608-176.259 320.32997-176.72724 320.33-177.2V-282.8C320.32997-283.27275 320.37608-283.74095 320.46833-284.20463 320.56056-284.6683 320.6971-285.11854 320.87806-285.5553 321.05897-285.99208 321.28074-286.40699 321.54338-286.80006 321.80604-287.19316 322.1045-287.55686 322.4388-287.89115 322.7731-288.22544 323.13679-288.5239 323.52989-288.78657 323.92295-289.04924 324.33787-289.271 324.77464-289.4519 325.21144-289.63285 325.66166-289.7694 326.12535-289.86164 326.58903-289.9539 327.05726-290 327.53-290Z" fill="#fad9d5"/>
<path transform="matrix(.7195416,0,0,.7195416,115.1459,209.3866)" stroke-width="2" stroke-linecap="butt" stroke-miterlimit="4" stroke-linejoin="miter" fill="none" stroke="#ae4132" d="M327.53-290H373.12998C373.60273-290 374.07093-289.9539 374.53459-289.86164 374.99824-289.7694 375.44847-289.63285 375.88523-289.4519 376.32203-289.271 376.73698-289.04924 377.13008-288.78657 377.52314-288.5239 377.8868-288.22544 378.22114-287.89115 378.55543-287.55686 378.85389-287.19316 379.11653-286.80006 379.37916-286.40699 379.60093-285.99208 379.78187-285.5553 379.9628-285.11854 380.09938-284.6683 380.1916-284.20463 380.28385-283.74095 380.33-283.27275 380.33-282.8V-177.2C380.33-176.72724 380.28385-176.259 380.1916-175.79532 380.0994-175.33165 379.96284-174.88144 379.7819-174.44466 379.60096-174.00789 379.37919-173.59296 379.11656-173.19988 378.85389-172.8068 378.55543-172.44312 378.22114-172.10883 377.8868-171.77454 377.52314-171.47608 377.13008-171.21343 376.73698-170.95076 376.32203-170.72898 375.88526-170.54807 375.44847-170.36714 374.99824-170.23058 374.53459-170.13835 374.07093-170.04613 373.60273-170.00002 373.12998-170H327.53C327.05726-170.00002 326.58903-170.04613 326.12535-170.13835 325.66166-170.23058 325.21144-170.36714 324.77464-170.54807 324.33787-170.72898 323.92295-170.95076 323.52989-171.21343 323.13679-171.47608 322.7731-171.77454 322.4388-172.10883 322.1045-172.44312 321.80604-172.8068 321.54338-173.19988 321.2807-173.59296 321.05894-174.00789 320.87803-174.44466 320.6971-174.88144 320.56056-175.33167 320.46833-175.79534 320.37608-176.259 320.32997-176.72724 320.33-177.2V-282.8C320.32997-283.27275 320.37608-283.74095 320.46833-284.20463 320.56056-284.6683 320.6971-285.11854 320.87806-285.5553 321.05897-285.99208 321.28074-286.40699 321.54338-286.80006 321.80604-287.19316 322.1045-287.55686 322.4388-287.89115 322.7731-288.22544 323.13679-288.5239 323.52989-288.78657 323.92295-289.04924 324.33787-289.271 324.77464-289.4519 325.21144-289.63285 325.66166-289.7694 326.12535-289.86164 326.58903-289.9539 327.05726-290 327.53-290Z"/>
<path transform="matrix(.7195416,0,0,.7195416,115.1459,209.3866)" d="M156-290H304C304.39396-290 304.78416-289.96159 305.17054-289.8847 305.55693-289.80784 305.9321-289.694 306.29609-289.54325 306.66007-289.3925 307.00584-289.20768 307.3334-288.98884 307.66096-288.76994 307.96406-288.52119 308.24266-288.2426 308.5212-287.96403 308.76994-287.66096 308.9888-287.33338 309.20768-287.00584 309.3925-286.66007 309.54325-286.29609 309.69404-285.9321 309.80784-285.55693 309.8847-285.1705 309.96159-284.78413 310-284.39396 310-284V-176C310-175.60604 309.96159-175.21584 309.8847-174.82944 309.80784-174.44304 309.69404-174.06786 309.54325-173.70388 309.3925-173.3399 309.20768-172.99413 308.98884-172.66655 308.76994-172.33899 308.5212-172.03592 308.24266-171.75736 307.96406-171.47878 307.66096-171.23006 307.3334-171.01117 307.00584-170.7923 306.66007-170.60749 306.29609-170.45671 305.9321-170.30596 305.55693-170.19214 305.17054-170.11528 304.78416-170.03844 304.39396-170.00002 304-170H156C155.60604-170.00002 155.21584-170.03844 154.82944-170.11528 154.44304-170.19214 154.06786-170.30596 153.70388-170.45671 153.33989-170.60749 152.99411-170.7923 152.66655-171.01119 152.33899-171.23006 152.03592-171.47878 151.75734-171.75736 151.47876-172.03592 151.23003-172.33899 151.01117-172.66655 150.7923-172.99413 150.60749-173.3399 150.45671-173.70388 150.30594-174.06786 150.19213-174.44304 150.11528-174.82944 150.03842-175.21584 149.99999-175.60604 150-176V-284C149.99999-284.39396 150.03842-284.78413 150.11528-285.1705 150.19213-285.55693 150.30594-285.9321 150.45671-286.29609 150.60749-286.66007 150.7923-287.00584 151.01117-287.33338 151.23003-287.66096 151.47876-287.96403 151.75734-288.2426 152.03592-288.52119 152.33899-288.7699 152.66655-288.9888 152.99411-289.20768 153.33989-289.3925 153.70388-289.54325 154.06786-289.694 154.44304-289.80784 154.82944-289.8847 155.21584-289.96159 155.60604-290 156-290Z" fill="#b1ddf0"/>
<path transform="matrix(.7195416,0,0,.7195416,115.1459,209.3866)" stroke-width="2" stroke-linecap="butt" stroke-miterlimit="4" stroke-linejoin="miter" fill="none" stroke="#10739e" d="M156-290H304C304.39396-290 304.78416-289.96159 305.17054-289.8847 305.55693-289.80784 305.9321-289.694 306.29609-289.54325 306.66007-289.3925 307.00584-289.20768 307.3334-288.98884 307.66096-288.76994 307.96406-288.52119 308.24266-288.2426 308.5212-287.96403 308.76994-287.66096 308.9888-287.33338 309.20768-287.00584 309.3925-286.66007 309.54325-286.29609 309.69404-285.9321 309.80784-285.55693 309.8847-285.1705 309.96159-284.78413 310-284.39396 310-284V-176C310-175.60604 309.96159-175.21584 309.8847-174.82944 309.80784-174.44304 309.69404-174.06786 309.54325-173.70388 309.3925-173.3399 309.20768-172.99413 308.98884-172.66655 308.76994-172.33899 308.5212-172.03592 308.24266-171.75736 307.96406-171.47878 307.66096-171.23006 307.3334-171.01117 307.00584-170.7923 306.66007-170.60749 306.29609-170.45671 305.9321-170.30596 305.55693-170.19214 305.17054-170.11528 304.78416-170.03844 304.39396-170.00002 304-170H156C155.60604-170.00002 155.21584-170.03844 154.82944-170.11528 154.44304-170.19214 154.06786-170.30596 153.70388-170.45671 153.33989-170.60749 152.99411-170.7923 152.66655-171.01119 152.33899-171.23006 152.03592-171.47878 151.75734-171.75736 151.47876-172.03592 151.23003-172.33899 151.01117-172.66655 150.7923-172.99413 150.60749-173.3399 150.45671-173.70388 150.30594-174.06786 150.19213-174.44304 150.11528-174.82944 150.03842-175.21584 149.99999-175.60604 150-176V-284C149.99999-284.39396 150.03842-284.78413 150.11528-285.1705 150.19213-285.55693 150.30594-285.9321 150.45671-286.29609 150.60749-286.66007 150.7923-287.00584 151.01117-287.33338 151.23003-287.66096 151.47876-287.96403 151.75734-288.2426 152.03592-288.52119 152.33899-288.7699 152.66655-288.9888 152.99411-289.20768 153.33989-289.3925 153.70388-289.54325 154.06786-289.694 154.44304-289.80784 154.82944-289.8847 155.21584-289.96159 155.60604-290 156-290Z"/>
<path transform="matrix(.7195416,0,0,.7195416,115.50566,209.74637)" stroke-width="1" stroke-linecap="butt" stroke-miterlimit="10" stroke-linejoin="miter" fill="none" stroke="#000000" d="M304.14-245.04 312.88-245.02"/>
<path transform="matrix(.7195416,0,0,.7195416,115.50566,209.74637)" d="M318.88-245 312.88-243.02 312.89-247.02 318.88-245Z"/>
<path transform="matrix(.7195416,0,0,.7195416,115.50566,209.74637)" stroke-width="1" stroke-linecap="butt" stroke-miterlimit="10" stroke-linejoin="miter" fill="none" stroke="#000000" d="M318.88-245 312.88-243.02 312.89-247.02 318.88-245Z"/>
<path transform="matrix(.7195416,0,0,.7195416,115.1459,209.3866)" d="M194.14-280H304.14V-210.08H194.14Z" fill="#b1ddf0"/>
<path transform="matrix(.7195416,0,0,.7195416,115.1459,209.3866)" stroke-width="2" stroke-linecap="butt" stroke-miterlimit="4" stroke-linejoin="miter" fill="none" stroke="#10739e" d="M194.14-280H304.14V-210.08H194.14Z"/>
<path transform="matrix(.7195416,0,0,.7195416,115.1459,209.3866)" d="M174.14-260H284.14V-190.08H174.14Z" fill="#b1ddf0"/>
<path transform="matrix(.7195416,0,0,.7195416,115.1459,209.3866)" stroke-width="2" stroke-linecap="butt" stroke-miterlimit="4" stroke-linejoin="miter" fill="none" stroke="#10739e" d="M174.14-260H284.14V-190.08H174.14Z"/>
<path transform="matrix(.7195416,0,0,.7195416,115.50566,209.74637)" stroke-width="1" stroke-linecap="butt" stroke-miterlimit="10" stroke-linejoin="miter" fill="none" stroke="#000000" d="M274.14-215H297.1 312.88"/>
<path transform="matrix(.7195416,0,0,.7195416,115.50566,209.74637)" d="M318.88-215 312.88-213V-217L318.88-215Z"/>
<path transform="matrix(.7195416,0,0,.7195416,115.50566,209.74637)" stroke-width="1" stroke-linecap="butt" stroke-miterlimit="10" stroke-linejoin="miter" fill="none" stroke="#000000" d="M318.88-215 312.88-213V-217L318.88-215Z"/>
<path transform="matrix(.7195416,0,0,.7195416,115.1459,209.3866)" d="M-84-290H134C134.39397-290 134.78414-289.96159 135.17052-289.8847 135.55692-289.80784 135.93212-289.694 136.29608-289.54325 136.66005-289.3925 137.00583-289.20768 137.3334-288.98884 137.66098-288.76994 137.96405-288.52119 138.24263-288.2426 138.52121-287.96403 138.76993-287.66096 138.9888-287.33338 139.20767-287.00584 139.39249-286.66007 139.54326-286.29609 139.69403-285.9321 139.80783-285.55693 139.88469-285.1705 139.96157-284.78413 140-284.39396 140-284V-176C140-175.60604 139.96157-175.21584 139.88469-174.82944 139.80783-174.44304 139.69403-174.06786 139.54326-173.70388 139.39249-173.3399 139.20767-172.99413 138.9888-172.66655 138.76993-172.33899 138.52121-172.03592 138.24263-171.75736 137.96405-171.47878 137.66098-171.23006 137.3334-171.01117 137.00585-170.7923 136.66007-170.60749 136.2961-170.45671 135.93212-170.30596 135.55693-170.19214 135.17053-170.11528 134.78414-170.03844 134.39397-170.00002 134-170H-84C-84.39396-170.00002-84.78414-170.03844-85.17053-170.11528-85.55693-170.19214-85.93211-170.30596-86.29609-170.45671-86.660068-170.60749-87.005847-170.7923-87.33342-171.01119-87.66099-171.23006-87.964069-171.47878-88.24264-171.75736-88.52121-172.03592-88.769939-172.33899-88.98881-172.66655-89.20769-172.99413-89.3925-173.3399-89.54327-173.70388-89.69403-174.06786-89.807849-174.44304-89.88471-174.82944-89.96157-175.21584-90-175.60604-90-176V-284C-90-284.39396-89.96157-284.78413-89.88471-285.1705-89.807849-285.55693-89.69404-285.9321-89.543277-286.29609-89.39251-286.66007-89.207698-287.00584-88.988819-287.33338-88.769939-287.66096-88.52121-287.96403-88.24264-288.2426-87.964069-288.52119-87.66099-288.7699-87.33341-288.9888-87.005847-289.20768-86.660068-289.3925-86.29609-289.54325-85.93211-289.694-85.55693-289.80784-85.17053-289.8847-84.78414-289.96159-84.39396-290-84-290Z" fill="#d5e8d4"/>
<path transform="matrix(.7195416,0,0,.7195416,115.1459,209.3866)" stroke-width="2" stroke-linecap="butt" stroke-miterlimit="4" stroke-linejoin="miter" fill="none" stroke="#82b366" d="M-84-290H134C134.39397-290 134.78414-289.96159 135.17052-289.8847 135.55692-289.80784 135.93212-289.694 136.29608-289.54325 136.66005-289.3925 137.00583-289.20768 137.3334-288.98884 137.66098-288.76994 137.96405-288.52119 138.24263-288.2426 138.52121-287.96403 138.76993-287.66096 138.9888-287.33338 139.20767-287.00584 139.39249-286.66007 139.54326-286.29609 139.69403-285.9321 139.80783-285.55693 139.88469-285.1705 139.96157-284.78413 140-284.39396 140-284V-176C140-175.60604 139.96157-175.21584 139.88469-174.82944 139.80783-174.44304 139.69403-174.06786 139.54326-173.70388 139.39249-173.3399 139.20767-172.99413 138.9888-172.66655 138.76993-172.33899 138.52121-172.03592 138.24263-171.75736 137.96405-171.47878 137.66098-171.23006 137.3334-171.01117 137.00585-170.7923 136.66007-170.60749 136.2961-170.45671 135.93212-170.30596 135.55693-170.19214 135.17053-170.11528 134.78414-170.03844 134.39397-170.00002 134-170H-84C-84.39396-170.00002-84.78414-170.03844-85.17053-170.11528-85.55693-170.19214-85.93211-170.30596-86.29609-170.45671-86.660068-170.60749-87.005847-170.7923-87.33342-171.01119-87.66099-171.23006-87.964069-171.47878-88.24264-171.75736-88.52121-172.03592-88.769939-172.33899-88.98881-172.66655-89.20769-172.99413-89.3925-173.3399-89.54327-173.70388-89.69403-174.06786-89.807849-174.44304-89.88471-174.82944-89.96157-175.21584-90-175.60604-90-176V-284C-90-284.39396-89.96157-284.78413-89.88471-285.1705-89.807849-285.55693-89.69404-285.9321-89.543277-286.29609-89.39251-286.66007-89.207698-287.00584-88.988819-287.33338-88.769939-287.66096-88.52121-287.96403-88.24264-288.2426-87.964069-288.52119-87.66099-288.7699-87.33341-288.9888-87.005847-289.20768-86.660068-289.3925-86.29609-289.54325-85.93211-289.694-85.55693-289.80784-85.17053-289.8847-84.78414-289.96159-84.39396-290-84-290Z"/>
<path transform="matrix(.7195416,0,0,.7195416,115.1459,209.3866)" d="M-20.65-285H-18.65V-283H-20.65V-285ZM-16.65-285H-14.65V-283H-16.65V-285ZM-12.65-285H-10.65V-283H-12.65V-285ZM-8.65-285H-6.6499998V-283H-8.65V-285ZM-4.6499998-285H-2.6499997V-283H-4.6499998V-285ZM-.6499996-285H1.3500004V-283H-.6499996V-285ZM3.3500005-285H5.3500006V-283H3.3500005V-285ZM7.3500006-285H9.35V-283H7.3500006V-285ZM11.35-285H13.35V-283H11.35V-285ZM15.35-285H17.35V-283H15.35V-285ZM19.35-285H21.35V-283H19.35V-285ZM23.35-285H25.35V-283H23.35V-285ZM27.35-285H29.35V-283H27.35V-285ZM31.35-285H33.35V-283H31.35V-285ZM35.35-285H37.35V-283H35.35V-285ZM39.35-285H41.35V-283H39.35V-285ZM43.35-285H45.35V-283H43.35V-285ZM47.35-285H49.35V-283H47.35V-285ZM51.35-285H53.35V-283H51.35V-285ZM55.35-285H57.35V-283H55.35V-285ZM59.35-285H61.35V-283H59.35V-285ZM63.35-285H65.35V-283H63.35V-285ZM67.35-285H69.35V-283H67.35V-285ZM71.35-285H73.35V-283H71.35V-285ZM75.35-285H77.35V-283H75.35V-285ZM79.35-285H81.35V-283H79.35V-285ZM83.35-285H85.35V-283H83.35V-285ZM87.35-285H89.35V-283H87.35V-285ZM91.35-285H93.35V-283H91.35V-285ZM95.35-285H97.35V-283H95.35V-285ZM99.35-285H101.35V-283H99.35V-285ZM103.35-285H105.35V-283H103.35V-285ZM107.35-285H109.35V-283H107.35V-285ZM111.35-285H113.35V-283H111.35V-285ZM115.35-285H117.35V-283H115.35V-285ZM119.35-285H121.35V-283H119.35V-285ZM123.35-285H125.35V-283H123.35V-285ZM127.35-285H127.65C128.31163-285 128.95746-284.89909 129.5875-284.69725L128.9773-282.79258C128.54564-282.93086 128.10321-283 127.65-283H127.35V-285ZM131.76782-283.48384C132.42406-282.9248 132.94486-282.25975 133.33022-281.4886L131.54119-280.59455C131.27719-281.1228 130.92043-281.5784 130.47089-281.96138L131.76782-283.48384ZM133.97655-279.19526C133.99219-279.01387 134-278.8321 134-278.65V-277.13945H132V-278.65C132-278.77473 131.99465-278.89924 131.98394-279.0235L133.97655-279.19526ZM134-275.13945V-273.13945H132V-275.13945H134ZM134-271.13945V-269.13945H132V-271.13945H134ZM134-267.13945V-265.13945H132V-267.13945H134ZM134-263.13945V-261.13945H132V-263.13945H134ZM134-259.13945V-257.13945H132V-259.13945H134ZM134-255.13942V-253.13942H132V-255.13942H134ZM134-251.13942V-249.13942H132V-251.13942H134ZM134-247.13942V-245.13942H132V-247.13942H134ZM134-243.13942V-241.13942H132V-243.13942H134ZM134-239.13942V-237.13942H132V-239.13942H134ZM134-235.13944V-233.13944H132V-235.13944H134ZM134-231.13944V-229.13942H132V-231.13944H134ZM134-227.13944V-225.13942H132V-227.13944H134ZM134-223.13944V-221.13944H132V-223.13944H134ZM134-219.13944V-217.13944H132V-219.13944H134ZM134-215.13944V-213.13944H132V-215.13944H134ZM134-211.13944V-209.13944H132V-211.13944H134ZM134-207.13944V-205.13944H132V-207.13944H134ZM134-203.13944V-201.13944H132V-203.13944H134ZM134-199.13944V-197.13944H132V-199.13944H134ZM134-195.13944V-193.13944H132V-195.13944H134ZM134-191.13944V-189.13944H132V-191.13944H134ZM134-187.13944V-185.13944H132V-187.13944H134ZM134-183.13944V-182.35C134-181.88747 133.95006-181.4304 133.85019-180.97882L131.89737-181.4107C131.96579-181.72008 132-182.03319 132-182.35V-183.13944H134ZM132.86568-178.72797C132.37218-178.01734 131.75904-177.43199 131.02626-176.97196L129.96285-178.6658C130.46483-178.98094 130.88486-179.38195 131.22295-179.86878L132.86568-178.72797ZM128.75388-176.0967C128.38875-176.03223 128.02079-176 127.65-176H126.62885V-178H127.65C127.903987-178 128.15604-178.02208 128.40616-178.06624L128.75388-176.0967ZM124.62885-176H122.62885V-178H124.62885V-176ZM120.62885-176H118.62885V-178H120.62885V-176ZM116.62885-176H114.62885V-178H116.62885V-176ZM112.62885-176H110.62885V-178H112.62885V-176ZM108.62885-176H106.62885V-178H108.62885V-176ZM104.62885-176H102.62885V-178H104.62885V-176ZM100.62885-176H98.62885V-178H100.62885V-176ZM96.62886-176H94.62886V-178H96.62886V-176ZM92.62886-176H90.62886V-178H92.62886V-176ZM88.62885-176H86.62885V-178H88.62885V-176ZM84.62886-176H82.62886V-178H84.62886V-176ZM80.62886-176H78.62886V-178H80.62886V-176ZM76.62886-176H74.62886V-178H76.62886V-176ZM72.62886-176H70.62886V-178H72.62886V-176ZM68.62886-176H66.62886V-178H68.62886V-176ZM64.62886-176H62.62886V-178H64.62886V-176ZM60.62886-176H58.62886V-178H60.62886V-176ZM56.62886-176H54.62886V-178H56.62886V-176ZM52.62886-176H50.62886V-178H52.62886V-176ZM48.62886-176H46.62886V-178H48.62886V-176ZM44.62886-176H42.62886V-178H44.62886V-176ZM40.62886-176H38.62886V-178H40.62886V-176ZM36.62886-176H34.62886V-178H36.62886V-176ZM32.62886-176H30.62886V-178H32.62886V-176ZM28.62886-176H26.62886V-178H28.62886V-176ZM24.62886-176H22.62886V-178H24.62886V-176ZM20.62886-176H18.628869V-178H20.62886V-176ZM16.628869-176H14.628868V-178H16.628869V-176ZM12.628868-176H10.628868V-178H12.628868V-176ZM8.628868-176H6.628868V-178H8.628868V-176ZM4.628868-176H2.628868V-178H4.628868V-176ZM.6288681-176H-1.3711319V-178H.6288681V-176ZM-3.371132-176H-5.371132V-178H-3.371132V-176ZM-7.371132-176H-9.371132V-178H-7.371132V-176ZM-11.371132-176H-13.371132V-178H-11.371132V-176ZM-15.371132-176H-17.371132V-178H-15.371132V-176ZM-19.371132-176H-21.371132V-178H-19.371132V-176ZM-23.371132-176H-24.65C-24.920544-175.99999-25.190028-176.01721-25.458453-176.05168L-25.203738-178.03539C-25.019953-178.01178-24.835373-177.99999-24.65-178H-23.371132V-176ZM-27.745879-176.80582C-28.500298-177.22708-29.142006-177.77935-29.671004-178.4626L-28.089583-179.68697C-27.727223-179.21894-27.287629-178.84062-26.770804-178.55204L-27.745879-176.80582ZM-30.776623-180.68058C-30.92554-181.22708-31-181.78356-31-182.35V-182.88172H-29V-182.35C-29-181.96199-28.948992-181.58078-28.846978-181.20639L-30.776623-180.68058ZM-31-184.88172V-186.88172H-29V-184.88172H-31ZM-31-188.88172V-190.88172H-29V-188.88172H-31ZM-31-192.88172V-194.88172H-29V-192.88172H-31ZM-31-196.88172V-198.88172H-29V-196.88172H-31ZM-31-200.88172V-202.88172H-29V-200.88172H-31ZM-31-204.88172V-206.88172H-29V-204.88172H-31ZM-31-208.88172V-210.88172H-29V-208.88172H-31ZM-31-212.8817V-214.8817H-29V-212.8817H-31ZM-31-216.8817V-218.8817H-29V-216.8817H-31ZM-31-220.8817V-222.8817H-29V-220.8817H-31ZM-31-224.8817V-226.8817H-29V-224.8817H-31ZM-31-228.8817V-230.8817H-29V-228.8817H-31ZM-31-232.8817V-234.8817H-29V-232.8817H-31ZM-31-236.8817V-238.8817H-29V-236.8817H-31ZM-31-240.8817V-242.8817H-29V-240.8817H-31ZM-31-244.8817V-246.88169H-29V-244.8817H-31ZM-31-248.88169V-250.88169H-29V-248.88169H-31ZM-31-252.88169V-254.88169H-29V-252.88169H-31ZM-31-256.88169V-258.88169H-29V-256.88169H-31ZM-31-260.88169V-262.88169H-29V-260.88169H-31ZM-31-264.88169V-266.88169H-29V-264.88169H-31ZM-31-268.88169V-270.88169H-29V-268.88169H-31ZM-31-272.88169V-274.88169H-29V-272.88169H-31ZM-31-276.88169V-278.65C-31-278.73539-30.998278-278.82075-30.994833-278.90608L-28.996462-278.82539C-28.998822-278.76695-29-278.7085-29-278.65V-276.88169H-31ZM-30.46649-281.19773C-30.12196-281.98429-29.6378-282.67265-29.014012-283.2628L-27.639515-281.80998C-28.066832-281.4057-28.398503-280.93415-28.634528-280.3953L-30.46649-281.19773ZM-26.884598-284.59385C-26.164328-284.86463-25.419463-285-24.65-285H-22.65V-283H-24.65C-25.177145-283-25.687418-282.90727-26.18082-282.72178L-26.884598-284.59385Z" fill="#82b366"/>
<path transform="matrix(.7195416,0,0,.7195416,115.50566,209.74637)" stroke-width="1" stroke-linecap="butt" stroke-miterlimit="10" stroke-linejoin="miter" fill="none" stroke="#000000" d="M105-210.21C105-203.40334 109.166667-200 117.5-200 125.833339-200 130-207.5 130-222.5 130-237.5 148.67334-245.01 186.02-245.03"/>
<path transform="matrix(.7195416,0,0,.7195416,115.50566,209.74637)" d="M193.02-245.04 186.02-242.7V-247.37L193.02-245.04Z"/>
<path transform="matrix(.7195416,0,0,.7195416,115.50566,209.74637)" stroke-width="1" stroke-linecap="butt" stroke-miterlimit="10" stroke-linejoin="miter" fill="none" stroke="#000000" d="M193.02-245.04 186.02-242.7V-247.37L193.02-245.04Z"/>
<path transform="matrix(.7195416,0,0,.7195416,115.50566,209.74637)" stroke-width="1" stroke-linecap="butt" stroke-miterlimit="10" stroke-linejoin="miter" fill="none" stroke="#000000" d="M77.58-209.29C77.59333-196.43 88-190 108.8-190 129.6-190 140-196.63333 140-209.9 140-223.16667 147.00667-229.79334 161.02-229.78"/>
<path transform="matrix(.7195416,0,0,.7195416,115.50566,209.74637)" d="M168.02-229.77 161.02-227.45V-232.11L168.02-229.77Z"/>
<path transform="matrix(.7195416,0,0,.7195416,115.50566,209.74637)" stroke-width="1" stroke-linecap="butt" stroke-miterlimit="10" stroke-linejoin="miter" fill="none" stroke="#000000" d="M168.02-229.77 161.02-227.45V-232.11L168.02-229.77Z"/>
<path transform="matrix(.7195416,0,0,.7195416,115.1459,209.3866)" d="M164.14-250H274.14V-180H164.14Z" fill="#b1ddf0"/>
<path transform="matrix(.7195416,0,0,.7195416,115.1459,209.3866)" stroke-width="2" stroke-linecap="butt" stroke-miterlimit="4" stroke-linejoin="miter" fill="none" stroke="#10739e" d="M164.14-250H274.14V-180H164.14Z"/>
<path transform="matrix(.7195416,0,0,.7195416,115.1459,209.3866)" d="M204.14-237.4H260V-217.60999H204.14Z" fill="#b1ddf0"/>
<path transform="matrix(.7195416,0,0,.7195416,115.1459,209.3866)" stroke-width="2" stroke-linecap="butt" stroke-miterlimit="4" stroke-linejoin="miter" fill="none" stroke="#10739e" d="M204.14-237.4H260V-217.60999H204.14Z"/>
<text xml:space="preserve" transform="matrix(.7195416 0 -.1798854 .7195416 115.1459 209.3866)" font-size="10" font-family="CMUSerif"><tspan y="-224" x="153.78125 157.72126 163.27126 168.27126 174.08887 178.52887">shape(</tspan></text>
<text xml:space="preserve" transform="matrix(.7195416 0 0 .7195416 115.1459 209.3866)" font-size="10" font-family="TimesNewRomanPS" font-style="italic"><tspan y="-224" x="238.40625">z</tspan></text>
<text xml:space="preserve" transform="matrix(.7195416 0 0 .7195416 115.1459 209.3866)" font-size="10" font-family="TimesNewRomanPS" font-style="italic"><tspan y="-224" x="242.3125">&#x2081;</tspan></text>
<text xml:space="preserve" transform="matrix(.7195416 0 -.1798854 .7195416 115.1459 209.3866)" font-size="10" font-family="CMUSerif"><tspan y="-224" x="189.3125">)</tspan></text>
<path transform="matrix(.7195416,0,0,.7195416,115.50566,209.74637)" d="M-160-260.08H-100V-200.07999H-160Z" fill="#00994d"/>
<path transform="matrix(.69502386,.18623106,-.18623106,.69502386,68.40602,229.27599)" d="M-150.85-250.07H-120.770008V-219.99H-150.85Z" fill="#ff8000"/>
<path transform="matrix(.7086101,-.12494708,.12494708,.7086101,140.54991,193.07637)" d="M-100-210.5C-99.99999-210.00754-100.09606-209.5198-100.28821-209.0368-100.480358-208.5538-100.76488-208.08481-101.14179-207.62984-101.51871-207.17487-101.98076-206.74265-102.52795-206.33318-103.075138-205.92372-103.696949-205.54489-104.393398-205.19669-105.08983-204.84847-105.84751-204.53755-106.666439-204.26396-107.48537-203.99037-108.3498-203.75934-109.259738-203.57088-110.16968-203.38243-111.10764-203.24018-112.07363-203.1441-113.03963-203.04804-114.01508-203-115-203-115.98492-203-116.960369-203.04804-117.926349-203.1441-118.89234-203.24018-119.83031-203.38243-120.74024-203.57088-121.650188-203.75934-122.51462-203.99037-123.33354-204.26395-124.15247-204.53755-124.91016-204.84847-125.6066-205.19669-126.30303-205.54489-126.92484-205.92372-127.47204-206.33319-128.01923-206.74266-128.48128-207.17487-128.85819-207.62984-129.23509-208.08481-129.51963-208.5538-129.71176-209.0368-129.90392-209.5198-129.99999-210.00754-130-210.5-129.99999-210.99245-129.90392-211.48017-129.71176-211.96317-129.51963-212.44615-129.23509-212.91513-128.85819-213.3701-128.48128-213.82508-128.01923-214.2573-127.47204-214.66677-126.92484-215.07624-126.30303-215.45508-125.6066-215.8033-124.91016-216.15152-124.15247-216.46242-123.33354-216.73601-122.51462-217.00962-121.650188-217.24063-120.74024-217.4291-119.83031-217.61756-118.89234-217.75981-117.926349-217.8559-116.960369-217.95197-115.98492-218-115-218-114.01508-218-113.039638-217.95197-112.07364-217.8559-111.10764-217.75981-110.16968-217.61756-109.259738-217.4291-108.3498-217.24063-107.48537-217.00962-106.666439-216.73601-105.84751-216.46242-105.08983-216.15152-104.393398-215.8033-103.696949-215.45508-103.075138-215.07624-102.52795-214.66677-101.98076-214.2573-101.51871-213.82508-101.14179-213.3701-100.76488-212.91513-100.480358-212.44615-100.28821-211.96317-100.09606-211.48017-99.99999-210.99245-100-210.5Z" fill="#cccc00"/>
<path transform="matrix(.7195416,0,0,.7195416,115.50566,209.74637)" stroke-width="1" stroke-linecap="butt" stroke-miterlimit="10" stroke-linejoin="miter" fill="none" stroke="#000000" d="M63.36-209.5C63.38667-189.83333 77.83333-180 106.7-180 135.56667-180 150-185.83333 150-197.5 150-209.16667 152.34-215 157.02-215"/>
<path transform="matrix(.7195416,0,0,.7195416,115.50566,209.74637)" d="M163.02-215 157.02-213V-217L163.02-215Z"/>
<path transform="matrix(.7195416,0,0,.7195416,115.50566,209.74637)" stroke-width="1" stroke-linecap="butt" stroke-miterlimit="10" stroke-linejoin="miter" fill="none" stroke="#000000" d="M163.02-215 157.02-213V-217L163.02-215Z"/>
<path transform="matrix(.7195416,0,0,.7195416,115.1459,209.3866)" d="M60-240H120V-210.20999H60Z" fill="#d5e8d4"/>
<path transform="matrix(.7195416,0,0,.7195416,115.1459,209.3866)" stroke-width="2" stroke-linecap="butt" stroke-miterlimit="4" stroke-linejoin="miter" fill="none" stroke="#82b366" d="M60-240H120V-210.20999H60Z"/>
<text xml:space="preserve" transform="matrix(.7195416 0 0 .7195416 115.1459 209.3866)" font-size="12" font-family="TimesNewRomanPS" font-style="italic"><tspan y="-221" x="69.328128 77.99213 83.32013 88.64813 94.64813 100.64813 105.976139">Decoder</tspan></text>
<path transform="matrix(.7195416,0,0,.7195416,115.1459,209.3866)" d="M184.14-220H240V-200.20999H184.14Z" fill="#b1ddf0"/>
<path transform="matrix(.7195416,0,0,.7195416,115.1459,209.3866)" stroke-width="2" stroke-linecap="butt" stroke-miterlimit="4" stroke-linejoin="miter" fill="none" stroke="#10739e" d="M184.14-220H240V-200.20999H184.14Z"/>
<text xml:space="preserve" transform="matrix(.7195416 0 -.1798854 .7195416 115.1459 209.3866)" font-size="10" font-family="CMUSerif"><tspan y="-207" x="135.15625 139.06626 144.06626 147.94626 152.94626 156.82627 159.59627 164.59627 170.14627 174.02628">rotation(z</tspan></text>
<text xml:space="preserve" transform="matrix(.7195416 0 0 .7195416 115.1459 209.3866)" font-size="10" font-family="TimesNewRomanPS" font-style="italic"><tspan y="-207" x="230.19727">&#x2081;</tspan></text>
<text xml:space="preserve" transform="matrix(.7195416 0 -.1798854 .7195416 115.1459 209.3866)" font-size="10" font-family="CMUSerif"><tspan y="-207" x="181.44532">)</tspan></text>
<path transform="matrix(.7195416,0,0,.7195416,115.1459,209.3866)" d="M174.14-210H230V-190H174.14Z" fill="#b1ddf0"/>
<path transform="matrix(.7195416,0,0,.7195416,115.1459,209.3866)" stroke-width="2" stroke-linecap="butt" stroke-miterlimit="4" stroke-linejoin="miter" fill="none" stroke="#10739e" d="M174.14-210H230V-190H174.14Z"/>
<text xml:space="preserve" transform="matrix(.7195416 0 0 .7195416 115.1459 209.3866)" font-size="10" font-family="TimesNewRomanPS" font-style="italic"><tspan y="-196" x="184.375 188.815 193.815 196.595 201.595 205.485">color(</tspan></text>
<text xml:space="preserve" transform="matrix(.7195416 0 -.1798854 .7195416 115.1459 209.3866)" font-size="10" font-family="CMUSerif"><tspan y="-196" x="159.82813">z</tspan></text>
<text xml:space="preserve" transform="matrix(.7195416 0 0 .7195416 115.1459 209.3866)" font-size="10" font-family="TimesNewRomanPS" font-style="italic"><tspan y="-196" x="213.2666">&#x2081;</tspan></text>
<text xml:space="preserve" transform="matrix(.7195416 0 0 .7195416 115.1459 209.3866)" font-size="10" font-family="TimesNewRomanPS" font-style="italic"><tspan y="-196" x="216.26563">)</tspan></text>
<path transform="matrix(.7195416,0,0,.7195416,115.50566,209.74637)" stroke-width="1" stroke-linecap="butt" stroke-miterlimit="10" stroke-linejoin="miter" fill="none" stroke="#000000" d="M40-232.5 53.32-227.57"/>
<path transform="matrix(.7195416,0,0,.7195416,115.50566,209.74637)" d="M58.95-225.49 52.63-225.7 54.02-229.45 58.95-225.49Z"/>
<path transform="matrix(.7195416,0,0,.7195416,115.50566,209.74637)" stroke-width="1" stroke-linecap="butt" stroke-miterlimit="10" stroke-linejoin="miter" fill="none" stroke="#000000" d="M58.95-225.49 52.63-225.7 54.02-229.45 58.95-225.49Z"/>
<path transform="matrix(.7195416,0,0,.7195416,115.50566,209.74637)" stroke-width="1" stroke-linecap="butt" stroke-miterlimit="10" stroke-linejoin="miter" fill="none" stroke="#000000" d="M40-225 53.32-220.11"/>
<path transform="matrix(.7195416,0,0,.7195416,115.50566,209.74637)" d="M58.95-218.04 52.63-218.23 54.01-221.99 58.95-218.04Z"/>
<path transform="matrix(.7195416,0,0,.7195416,115.50566,209.74637)" stroke-width="1" stroke-linecap="butt" stroke-miterlimit="10" stroke-linejoin="miter" fill="none" stroke="#000000" d="M58.95-218.04 52.63-218.23 54.01-221.99 58.95-218.04Z"/>
<path transform="matrix(.7195416,0,0,.7195416,115.50566,209.74637)" stroke-width="1" stroke-linecap="butt" stroke-miterlimit="10" stroke-linejoin="miter" fill="none" stroke="#000000" d="M40-217.49 53.31-212.65"/>
<path transform="matrix(.7195416,0,0,.7195416,115.50566,209.74637)" d="M58.95-210.59 52.63-210.77 54-214.52 58.95-210.59Z"/>
<path transform="matrix(.7195416,0,0,.7195416,115.50566,209.74637)" stroke-width="1" stroke-linecap="butt" stroke-miterlimit="10" stroke-linejoin="miter" fill="none" stroke="#000000" d="M58.95-210.59 52.63-210.77 54-214.52 58.95-210.59Z"/>
<path transform="matrix(.7195416,0,0,.7195416,115.50566,209.74637)" stroke-width="1" stroke-linecap="butt" stroke-miterlimit="10" stroke-linejoin="miter" fill="none" stroke="#000000" d="M40-240 53.33-235.04"/>
<path transform="matrix(.7195416,0,0,.7195416,115.50566,209.74637)" d="M58.95-232.94 52.63-233.16 54.03-236.91 58.95-232.94Z"/>
<path transform="matrix(.7195416,0,0,.7195416,115.50566,209.74637)" stroke-width="1" stroke-linecap="butt" stroke-miterlimit="10" stroke-linejoin="miter" fill="none" stroke="#000000" d="M58.95-232.94 52.63-233.16 54.03-236.91 58.95-232.94Z"/>
<text fill="#10739e" xml:space="preserve" transform="matrix(.50879278 -.50879278 .50879278 .50879278 284.374 287.79936)" font-size="12" font-family="TimesNewRomanPS" font-weight="bold"><tspan y="-225" x="241.48438 245.48038 249.47638">&#x00b7;&#x00b7;&#x00b7;</tspan></text>
<text fill="#10739e" xml:space="preserve" transform="matrix(.50879278 -.50879278 .50879278 .50879278 284.374 287.79936)" font-size="12" font-family="TimesNewRomanPS" font-weight="bold"><tspan y="-225" x="253.47238"> </tspan></text>
<text fill="#10739e" xml:space="preserve" transform="matrix(.50879278 -.50879278 .50879278 .50879278 274.55433 291.8668)" font-size="12" font-family="TimesNewRomanPS" font-weight="bold"><tspan y="-206" x="242.98438 246.98038 250.97638">&#x00b7;&#x00b7;&#x00b7;</tspan></text>
<text fill="#10739e" xml:space="preserve" transform="matrix(.50879278 -.50879278 .50879278 .50879278 273.62043 259.9814)" font-size="12" font-family="TimesNewRomanPS" font-weight="bold"><tspan y="-227" x="187.48438 191.48038 195.47638">&#x00b7;&#x00b7;&#x00b7;</tspan></text>
<text fill="#10739e" xml:space="preserve" transform="matrix(.50879278 -.50879278 .50879278 .50879278 273.62043 259.9814)" font-size="12" font-family="TimesNewRomanPS" font-weight="bold"><tspan y="-227" x="199.47238"> </tspan></text>
<text fill="#ae4132" xml:space="preserve" transform="matrix(.7195416 0 0 .7195416 115.1459 209.3866)" font-size="12" font-family="Arial" font-weight="bold"><tspan y="-276" x="323.65626 332.32026 338.99226 346.32426 353.65626 360.32826 364.99626 371.66825">Renderer</tspan></text>
<path transform="matrix(.7195416,0,0,.7195416,115.50566,209.74637)" stroke-width="1" stroke-linecap="butt" stroke-miterlimit="10" stroke-linejoin="miter" fill="none" stroke="#000000" d="M54.92-252.77 59.63-246.06"/>
<path transform="matrix(.7195416,0,0,.7195416,115.50566,209.74637)" d="M63.08-241.15 57.99-244.91 61.27-247.21 63.08-241.15Z"/>
<path transform="matrix(.7195416,0,0,.7195416,115.50566,209.74637)" stroke-width="1" stroke-linecap="butt" stroke-miterlimit="10" stroke-linejoin="miter" fill="none" stroke="#000000" d="M63.08-241.15 57.99-244.91 61.27-247.21 63.08-241.15Z"/>
<path transform="matrix(.7195416,0,0,.7195416,115.50566,209.74637)" stroke-width="1" stroke-linecap="butt" stroke-miterlimit="10" stroke-linejoin="miter" fill="none" stroke="#000000" d="M67.04-252.39 71.15-245.99"/>
<path transform="matrix(.7195416,0,0,.7195416,115.50566,209.74637)" d="M74.4-240.94 69.47-244.91 72.84-247.07 74.4-240.94Z"/>
<path transform="matrix(.7195416,0,0,.7195416,115.50566,209.74637)" stroke-width="1" stroke-linecap="butt" stroke-miterlimit="10" stroke-linejoin="miter" fill="none" stroke="#000000" d="M74.4-240.94 69.47-244.91 72.84-247.07 74.4-240.94Z"/>
<path transform="matrix(.7195416,0,0,.7195416,115.50566,209.74637)" stroke-width="1" stroke-linecap="butt" stroke-miterlimit="10" stroke-linejoin="miter" fill="none" stroke="#000000" d="M95-253.56 99.37-245.91"/>
<path transform="matrix(.7195416,0,0,.7195416,115.50566,209.74637)" d="M102.35-240.7 97.63-244.92 101.11-246.9 102.35-240.7Z"/>
<path transform="matrix(.7195416,0,0,.7195416,115.50566,209.74637)" stroke-width="1" stroke-linecap="butt" stroke-miterlimit="10" stroke-linejoin="miter" fill="none" stroke="#000000" d="M102.35-240.7 97.63-244.92 101.11-246.9 102.35-240.7Z"/>
<path transform="matrix(.7195416,0,0,.7195416,115.50566,209.74637)" stroke-width="1" stroke-linecap="butt" stroke-miterlimit="10" stroke-linejoin="miter" fill="none" stroke="#000000" d="M260-227.5C266.66667-227.5 270-225.41667 270-221.25 270-217.08333 269.34-215 268.02-215"/>
<path transform="matrix(.7195416,0,0,.7195416,115.50566,209.74637)" d="M273.02-215 268.02-213.33V-216.67L273.02-215Z"/>
<path transform="matrix(.7195416,0,0,.7195416,115.50566,209.74637)" stroke-width="1" stroke-linecap="butt" stroke-miterlimit="10" stroke-linejoin="miter" fill="none" stroke="#000000" d="M273.02-215 268.02-213.33V-216.67L273.02-215Z"/>
<path transform="matrix(.7195416,0,0,.7195416,115.50566,209.74637)" stroke-width="1" stroke-linecap="butt" stroke-miterlimit="10" stroke-linejoin="miter" fill="none" stroke="#000000" d="M230-200C243.33333-200 250-202.5 250-207.5 250-212.5 256.67335-215 270.02-215"/>
<path transform="matrix(.7195416,0,0,.7195416,115.50566,209.74637)" d="M273.02-215 270.02-214V-216L273.02-215Z"/>
<path transform="matrix(.7195416,0,0,.7195416,115.50566,209.74637)" stroke-width="1" stroke-linecap="butt" stroke-miterlimit="10" stroke-linejoin="miter" fill="none" stroke="#000000" d="M273.02-215 270.02-214V-216L273.02-215Z"/>
<text fill="#10739e" xml:space="preserve" transform="matrix(.50879278 -.50879278 .50879278 .50879278 314.42393 301.9914)" font-size="12" font-family="TimesNewRomanPS" font-weight="bold"><tspan y="-266" x="284.98439 288.98039 292.97639">&#x00b7;&#x00b7;&#x00b7;</tspan></text>
<text fill="#10739e" xml:space="preserve" transform="matrix(.50879278 -.50879278 .50879278 .50879278 314.42393 301.9914)" font-size="12" font-family="TimesNewRomanPS" font-weight="bold"><tspan y="-266" x="296.97239"> </tspan></text>
<text fill="#10739e" xml:space="preserve" transform="matrix(.50879278 -.50879278 .50879278 .50879278 314.42393 301.9914)" font-size="12" font-family="TimesNewRomanPS" font-weight="bold"><tspan y="-266" x="299.97239"> </tspan></text>
<text fill="#10739e" xml:space="preserve" transform="matrix(.50879278 -.50879278 .50879278 .50879278 280.33039 317.51124)" font-size="12" font-family="TimesNewRomanPS" font-weight="bold"><tspan y="-198" x="287.48439 291.48039 295.47639">&#x00b7;&#x00b7;&#x00b7;</tspan></text>
<text fill="#10739e" xml:space="preserve" transform="matrix(.50879278 -.50879278 .50879278 .50879278 280.33039 317.51124)" font-size="12" font-family="TimesNewRomanPS" font-weight="bold"><tspan y="-198" x="299.47239"> </tspan></text>
<text fill="#10739e" xml:space="preserve" transform="matrix(.50879278 -.50879278 .50879278 .50879278 280.33039 317.51124)" font-size="12" font-family="TimesNewRomanPS" font-weight="bold"><tspan y="-198" x="302.47239"> </tspan></text>
<path transform="matrix(.7195416,0,0,.7195416,115.1459,209.3866)" d="M50-268.54H110V-253.56002H50Z" fill="#d5e8d4"/>
<path transform="matrix(.7195416,0,0,.7195416,115.1459,209.3866)" stroke-width="2" stroke-linecap="butt" stroke-miterlimit="4" stroke-linejoin="miter" fill="none" stroke="#82b366" d="M50-268.54H110V-253.56002H50Z"/>
<text xml:space="preserve" transform="matrix(.7195416 0 0 .7195416 115.1459 209.3866)" font-size="10" font-family="TimesNewRomanPS" font-style="italic"><tspan y="-257" x="65.265628 70.265628 75.265628 79.70563 83.59563 86.375629 90.81563">queries</tspan></text>
<path transform="matrix(.7195416,0,0,.7195416,115.50566,209.74637)" stroke-width="1" stroke-linecap="butt" stroke-miterlimit="10" stroke-linejoin="miter" fill="none" stroke="#ae4132" d="M320.33-244.88 380.2-244.9 380.21-242.84"/>
<path transform="matrix(.7195416,0,0,.7195416,115.50566,209.74637)" stroke-width="1" stroke-linecap="butt" stroke-miterlimit="10" stroke-linejoin="miter" fill="none" stroke="#ae4132" d="M320.33-214.37 380.2-214.4 380.21-219.37"/>
<path transform="matrix(.7195416,0,0,.7195416,115.50566,209.74637)" d="M359.705-213.5C359.70497-213.20452 359.6449-212.91187 359.5248-212.62207 359.40473-212.33226 359.2269-212.05088 358.99134-211.7779 358.75578-211.5049 358.46699-211.24558 358.125-210.9999 357.783-210.75423 357.39436-210.52693 356.95909-210.31801 356.5238-210.10909 356.05024-209.92253 355.5384-209.75836 355.02659-209.59421 354.4863-209.4556 353.91758-209.34253 353.34886-209.22946 352.76264-209.1441 352.1589-209.08646 351.55519-209.02883 350.94557-209 350.33-209 349.71443-209 349.10475-209.02883 348.501-209.08646 347.89726-209.1441 347.311-209.22946 346.74229-209.34252 346.17359-209.45558 345.6333-209.5942 345.12147-209.75836 344.60966-209.92253 344.1361-210.10909 343.70085-210.31801 343.26557-210.52693 342.87693-210.75423 342.53495-210.9999 342.19294-211.24558 341.90415-211.5049 341.66859-211.7779 341.433-212.05088 341.2552-212.33228 341.1351-212.62209 341.015-212.91187 340.955-213.20452 340.955-213.5 340.955-213.79546 341.015-214.08809 341.1351-214.37789 341.2552-214.6677 341.433-214.94908 341.66859-215.22206 341.90415-215.49503 342.19294-215.75437 342.53495-216.00005 342.87693-216.24573 343.26557-216.47304 343.70085-216.68198 344.1361-216.8909 344.60966-217.07744 345.1215-217.2416 345.6333-217.40575 346.17359-217.54436 346.74229-217.65744 347.311-217.77053 347.89726-217.85588 348.50099-217.91353 349.10475-217.97118 349.71443-218 350.33-218 350.94557-218 351.55519-217.97118 352.1589-217.91355 352.76264-217.8559 353.34889-217.77054 353.9176-217.65746 354.4863-217.54438 355.02659-217.40575 355.53843-217.2416 356.05024-217.07744 356.5238-216.8909 356.95909-216.68198 357.39436-216.47304 357.783-216.24573 358.125-216.00005 358.46696-215.75437 358.75575-215.49503 358.9913-215.22206 359.22688-214.94908 359.40473-214.6677 359.5248-214.37789 359.6449-214.08809 359.70497-213.79546 359.705-213.5Z" fill="#cccc00"/>
<path transform="matrix(.7195416,0,0,.7195416,115.50566,209.74637)" d="M344.72-249.97H354.69V-240H344.72Z" fill="#ea6b66"/>
<path transform="matrix(.7195416,0,0,.7195416,115.50566,209.74637)" stroke-width="1" stroke-linecap="butt" stroke-miterlimit="10" stroke-linejoin="miter" fill="none" stroke="#ae4132" d="M344.72-225.21 380.2-225.2 380.15-217.64"/>
<path transform="matrix(.7195416,0,0,.7195416,115.50566,209.74637)" stroke-width="1" stroke-linecap="butt" stroke-miterlimit="10" stroke-linejoin="miter" fill="none" stroke="#000000" d="M240-210.1C246.66667-210.1 250-210.91667 250-212.55 250-214.18334 255.62667-215 266.88-215"/>
<path transform="matrix(.7195416,0,0,.7195416,115.50566,209.74637)" d="M272.88-215 266.88-213V-217L272.88-215Z"/>
<path transform="matrix(.7195416,0,0,.7195416,115.50566,209.74637)" stroke-width="1" stroke-linecap="butt" stroke-miterlimit="10" stroke-linejoin="miter" fill="none" stroke="#000000" d="M272.88-215 266.88-213V-217L272.88-215Z"/>
<text fill="#10739e" xml:space="preserve" transform="matrix(.50879278 -.50879278 .50879278 .50879278 290.34367 245.52584)" font-size="12" font-family="TimesNewRomanPS" font-weight="bold"><tspan y="-265" x="175.98438 179.98038 183.97638">&#x00b7;&#x00b7;&#x00b7;</tspan></text>
<path transform="matrix(.7195416,0,0,.7195416,115.1459,209.3866)" d="M152-287H207V-272H152Z" fill="#b1ddf0"/>
<text fill="#10739e" xml:space="preserve" transform="matrix(.7195416 0 0 .7195416 115.1459 209.3866)" font-size="12" font-family="Arial" font-weight="bold"><tspan y="-276" x="152"> </tspan></text>
<text fill="#10739e" xml:space="preserve" transform="matrix(.7195416 0 0 .7195416 115.1459 209.3866)" font-size="12" font-family="Arial" font-weight="bold"><tspan y="-276" x="155.336 164 170.672 177.344 184.676 192.008 198.68">Decoder</tspan></text>
<text fill="#10739e" xml:space="preserve" transform="matrix(.7195416 0 0 .7195416 115.1459 209.3866)" font-size="12" font-family="Arial" font-weight="bold"><tspan y="-276" x="203.34799"> </tspan></text>
<text fill="#446e2c" xml:space="preserve" transform="matrix(.7195416 0 0 .7195416 115.1459 209.3866)" font-size="12" font-family="Arial" font-weight="bold"><tspan y="-276" x="-84.015628 -76.01163 -68.67963 -62.007627 -54.675626 -47.343626 -40.671625">Encoder</tspan></text>
<text fill="#446e2c" xml:space="preserve" transform="matrix(.7195416 0 0 .7195416 115.1459 209.3866)" font-size="12" font-family="Arial" font-style="italic"><tspan y="-184" x="-28"> </tspan></text>
<text fill="#446e2c" xml:space="preserve" transform="matrix(.7195416 0 0 .7195416 115.1459 209.3866)" font-size="12" font-family="Arial" font-style="italic"><tspan y="-184" x="-24.664 -18.226563 -14.230562 -7.5585615 -.88656046 5.1134397 8.44944 15.121441 19.117442 29.113442 35.785444">Transformer</tspan></text>
<path transform="matrix(.7195416,0,0,.7195416,115.1459,209.3866)" d="M-20-240H40V-209.99H-20Z" fill="#d5e8d4"/>
<path transform="matrix(.7195416,0,0,.7195416,115.1459,209.3866)" stroke-width="2" stroke-linecap="butt" stroke-miterlimit="4" stroke-linejoin="miter" fill="none" stroke="#82b366" d="M-20-240H40V-209.99H-20Z"/>
<text xml:space="preserve" transform="matrix(.7195416 0 0 .7195416 115.1459 209.3866)" font-size="12" font-family="TimesNewRomanPS" font-style="italic"><tspan y="-221" x="-10.328125 -2.9961253 3.0038748 8.331875 14.331875 20.331875 25.659876">Encoder</tspan></text>
<path transform="matrix(.7195416,0,0,.7195416,115.50566,209.74637)" stroke-width="1" stroke-linecap="butt" stroke-miterlimit="10" stroke-linejoin="miter" fill="none" stroke="#000000" d="M-44.03-230.7C-34.676668-230.7-30-235.58333-30-245.35-30-255.11667-24.916668-260-14.75-260-4.583333-260 .49-255.67667 .47000004-247.03"/>
<path transform="matrix(.7195416,0,0,.7195416,115.50566,209.74637)" d="M.46-241.03-1.53-247.03 2.47-247.02 .46-241.03Z"/>
<path transform="matrix(.7195416,0,0,.7195416,115.50566,209.74637)" stroke-width="1" stroke-linecap="butt" stroke-miterlimit="10" stroke-linejoin="miter" fill="none" stroke="#000000" d="M.46-241.03-1.53-247.03 2.47-247.02 .46-241.03Z"/>
<path transform="matrix(.7195416,0,0,.7195416,115.50566,209.74637)" stroke-width="1" stroke-linecap="butt" stroke-miterlimit="10" stroke-linejoin="miter" fill="none" stroke="#000000" d="M-44.03-230.7C-34.676668-230.7-30-238.91667-30-255.35-30-271.78334-20-280 0-280 20-280 30-269.04 30-247.12"/>
<path transform="matrix(.7195416,0,0,.7195416,115.50566,209.74637)" d="M30-241.12 28-247.12H32L30-241.12Z"/>
<path transform="matrix(.7195416,0,0,.7195416,115.50566,209.74637)" stroke-width="1" stroke-linecap="butt" stroke-miterlimit="10" stroke-linejoin="miter" fill="none" stroke="#000000" d="M30-241.12 28-247.12H32L30-241.12Z"/>
<path transform="matrix(.7195416,0,0,.7195416,115.50566,209.74637)" stroke-width="1" stroke-linecap="butt" stroke-miterlimit="10" stroke-linejoin="miter" fill="none" stroke="#000000" d="M-44.03-230.7C-34.676668-230.7-30-233.91667-30-240.35-30-246.78334-27.466668-250-22.4-250-17.333333-250-14.803333-249.08-14.81-247.24"/>
<path transform="matrix(.7195416,0,0,.7195416,115.50566,209.74637)" d="M-14.84-241.24-16.81-247.25-12.81-247.23-14.84-241.24Z"/>
<path transform="matrix(.7195416,0,0,.7195416,115.50566,209.74637)" stroke-width="1" stroke-linecap="butt" stroke-miterlimit="10" stroke-linejoin="miter" fill="none" stroke="#000000" d="M-14.84-241.24-16.81-247.25-12.81-247.23-14.84-241.24Z"/>
<path transform="matrix(.7195416,0,0,.7195416,115.50566,209.74637)" stroke-width="1" stroke-linecap="butt" stroke-miterlimit="10" stroke-linejoin="miter" fill="none" stroke="#000000" d="M-100-230.08-83.72-230.09"/>
<path transform="matrix(.7195416,0,0,.7195416,115.50566,209.74637)" d="M-77.72-230.1-83.72-228.09V-232.09L-77.72-230.1Z"/>
<path transform="matrix(.7195416,0,0,.7195416,115.50566,209.74637)" stroke-width="1" stroke-linecap="butt" stroke-miterlimit="10" stroke-linejoin="miter" fill="none" stroke="#000000" d="M-77.72-230.1-83.72-228.09V-232.09L-77.72-230.1Z"/>
<path transform="matrix(0,-.7195416,-.7195416,0,-94.02485,.21586466)" d="M-97.5-214.72-82.5-246.67H-37.5L-22.5-214.72H-97.5Z" fill="#d5e8d4"/>
<path transform="matrix(0,-.7195416,-.7195416,0,-94.02485,.21586466)" stroke-width="2" stroke-linecap="butt" stroke-miterlimit="10" stroke-linejoin="miter" fill="none" stroke="#82b366" d="M-97.5-214.72-82.5-246.67H-37.5L-22.5-214.72H-97.5Z"/>
<text xml:space="preserve" transform="matrix(0 -.7195416 .7195416 0 247.80014 11.692983)" font-size="13" font-family="TimesNewRomanPSMT"><tspan y="-241" x="-66.359378 -56.973375 -52.644376 -43.258375 -33.87237 -27.372372">DINOv2</tspan></text>
<path transform="matrix(.7195416,0,0,.7195416,115.50566,209.74637)" d="M169.14-235.2H180V-224.34H169.14Z" fill="#b1ddf0"/>
<text xml:space="preserve" transform="matrix(.7195416 0 0 .7195416 115.1459 209.3866)" font-size="11" font-family="TimesNewRomanPS" font-style="italic"><tspan y="-203" x="64.828128"> </tspan></text>
<text xml:space="preserve" transform="matrix(.7195416 0 0 .7195416 115.1459 209.3866)" font-size="11" font-family="TimesNewRomanPS" font-style="italic"><tspan y="-203" x="67.578128 71.857128">z&#x2081;</tspan></text>
<text xml:space="preserve" transform="matrix(.7195416 0 0 .7195416 115.1459 209.3866)" font-size="11" font-family="TimesNewRomanPS" font-style="italic"><tspan y="-203" x="83.453128 87.732128">z&#x2082;</tspan></text>
<text xml:space="preserve" transform="matrix(.7195416 0 0 .7195416 115.1459 209.3866)" font-size="11" font-family="TimesNewRomanPS" font-style="italic"><tspan y="-203" x="91.03213"> </tspan></text>
<text xml:space="preserve" transform="matrix(.7195416 0 0 .7195416 115.1459 209.3866)" font-size="11" font-family="TimesNewRomanPS" font-style="italic"><tspan y="-203" x="93.78213"> </tspan></text>
<text xml:space="preserve" transform="matrix(.7195416 0 0 .7195416 115.1459 209.3866)" font-size="11" font-family="TimesNewRomanPS" font-style="italic"><tspan y="-203" x="102.171878"> </tspan></text>
<text xml:space="preserve" transform="matrix(.7195416 0 0 .7195416 115.1459 209.3866)" font-size="11" font-family="TimesNewRomanPS" font-style="italic"><tspan y="-203" x="104.921878"> </tspan></text>
<text xml:space="preserve" transform="matrix(.7195416 0 0 .7195416 115.1459 209.3866)" font-size="11" font-family="TimesNewRomanPS" font-style="italic"><tspan y="-203" x="107.671878"> </tspan></text>
<text xml:space="preserve" transform="matrix(.7195416 0 0 .7195416 115.1459 209.3866)" font-size="11" font-family="TimesNewRomanPS" font-style="italic"><tspan y="-203" x="110.421878 114.700878">z&#x2099;</tspan></text>
<path transform="matrix(.7195416,0,0,.7195416,115.50566,209.74637)" d="M270-211.85H280V-204.85H270Z" fill="#b1ddf0"/>
<path transform="matrix(.7195416,0,0,.7195416,115.50566,209.74637)" stroke-width="1" stroke-linecap="butt" stroke-miterlimit="4" stroke-linejoin="miter" fill="none" stroke="#b1ddf0" d="M270-211.85H280V-204.85H270Z"/>
<text xml:space="preserve" transform="matrix(.7195416 0 0 .7195416 115.1459 209.3866)" font-size="11" font-family="TimesNewRomanPS" font-style="italic"><tspan y="-206" x="270.59376">p</tspan></text>
<text xml:space="preserve" transform="matrix(.7195416 0 0 .7195416 115.1459 209.3866)" font-size="11" font-family="TimesNewRomanPS" font-style="italic"><tspan y="-206" x="276.09376">&#x2081;</tspan></text>
<path transform="matrix(.7195416,0,0,.7195416,115.50566,209.74637)" d="M277.38-224H294.41V-218H277.38Z" fill="#b1ddf0"/>
<path transform="matrix(.7195416,0,0,.7195416,115.50566,209.74637)" stroke-width="1" stroke-linecap="butt" stroke-miterlimit="4" stroke-linejoin="miter" fill="none" stroke="#b1ddf0" d="M277.38-224H294.41V-218H277.38Z"/>
<text xml:space="preserve" transform="matrix(.7195416 0 0 .7195416 115.1459 209.3866)" font-size="11" font-family="TimesNewRomanPS" font-style="italic"><tspan y="-219" x="279.84376 285.34376">p&#x2082;</tspan></text>
<text xml:space="preserve" transform="matrix(.7195416 0 0 .7195416 115.1459 209.3866)" font-size="11" font-family="TimesNewRomanPS" font-style="italic"><tspan y="-219" x="288.64375"> </tspan></text>
<text xml:space="preserve" transform="matrix(.7195416 0 0 .7195416 115.1459 209.3866)" font-size="11" font-family="TimesNewRomanPS" font-style="italic"><tspan y="-219" x="291.39375"> </tspan></text>
<path transform="matrix(.7195416,0,0,.7195416,115.50566,209.74637)" d="M286.18-243H306.18V-236H286.18Z" fill="#b1ddf0"/>
<path transform="matrix(.7195416,0,0,.7195416,115.50566,209.74637)" stroke-width="1" stroke-linecap="butt" stroke-miterlimit="4" stroke-linejoin="miter" fill="none" stroke="#b1ddf0" d="M286.18-243H306.18V-236H286.18Z"/>
<text xml:space="preserve" transform="matrix(.7195416 0 0 .7195416 115.1459 209.3866)" font-size="11" font-family="TimesNewRomanPS" font-style="italic"><tspan y="-238" x="299.3125">p</tspan></text>
<text xml:space="preserve" transform="matrix(.7195416 0 0 .7195416 115.1459 209.3866)" font-size="11" font-family="TimesNewRomanPS" font-style="italic"><tspan y="-238" x="304.8125">&#x2099;</tspan></text>
<text xml:space="preserve" transform="matrix(.7195416 0 0 .7195416 115.1459 209.3866)" font-size="11" font-family="TimesNewRomanPS" font-style="italic"><tspan y="-238" x="307.9365"> </tspan></text>
<path transform="matrix(.7195416,0,0,.7195416,115.50566,209.74637)" stroke-width="1" stroke-linecap="butt" stroke-miterlimit="10" stroke-linejoin="miter" fill="none" stroke="#000000" d="M-44.03-230.7C-34.676668-230.7-30-237.25-30-250.35-30-263.45-22.566666-270-7.7-270 7.166667-270 14.606667-262.49336 14.62-247.48"/>
<path transform="matrix(.7195416,0,0,.7195416,115.50566,209.74637)" d="M14.62-241.48 12.62-247.48H16.62L14.62-241.48Z"/>
<path transform="matrix(.7195416,0,0,.7195416,115.50566,209.74637)" stroke-width="1" stroke-linecap="butt" stroke-miterlimit="10" stroke-linejoin="miter" fill="none" stroke="#000000" d="M14.62-241.48 12.62-247.48H16.62L14.62-241.48Z"/>
<path transform="matrix(.7195416,0,0,.7195416,115.1459,209.3866)" d="M168-248H240V-233H168Z" fill="#b1ddf0"/>
<text fill="#10739e" xml:space="preserve" transform="matrix(.7195416 0 0 .7195416 115.1459 209.3866)" font-size="11" font-family="Arial" font-style="italic"><tspan y="-237" x="168 175.942 182.058 187.558 193.674 199.79 205.90599 209.56899 212.62699">Decoder h</tspan></text>
<text fill="#10739e" xml:space="preserve" transform="matrix(.7195416 0 0 .7195416 115.1459 209.3866)" font-size="11" font-family="Arial" font-style="italic"><tspan y="-237" x="218.76563 224.88162 230.99762">ead</tspan></text>
<text fill="#10739e" xml:space="preserve" transform="matrix(.7195416 0 0 .7195416 115.1459 209.3866)" font-size="11" font-family="Arial" font-style="italic"><tspan y="-237" x="237.11362"> </tspan></text>
<text xml:space="preserve" transform="matrix(.7195416 0 0 .7195416 115.1459 209.3866)" font-size="8" font-family="TimesNewRomanPS" font-weight="bold"><tspan y="-203" x="93.984378 96.64838 99.31238">&#x00b7;&#x00b7;&#x00b7;</tspan></text>
<text xml:space="preserve" transform="matrix(.7195416 0 0 .7195416 115.1459 209.3866)" font-size="8" font-family="TimesNewRomanPS" font-weight="bold"><tspan y="-203" x="101.97638"> </tspan></text>
<text xml:space="preserve" transform="matrix(.7195416 0 0 .7195416 115.1459 209.3866)" font-size="8" font-family="TimesNewRomanPS" font-weight="bold"><tspan y="-203" x="103.97638"> </tspan></text>
<text xml:space="preserve" transform="matrix(.7195416 0 0 .7195416 115.1459 209.3866)" font-size="8" font-family="TimesNewRomanPS" font-weight="bold"><tspan y="-243" x="80.984378 83.64838 86.31238">&#x00b7;&#x00b7;&#x00b7;</tspan></text>
<text fill="#ae4132" xml:space="preserve" transform="matrix(0 -.7195416 .7195416 0 520.72988 277.73588)" font-size="9" font-family="TimesNewRomanPS" font-weight="bold"><tspan y="-230" x="324.48439 327.48139 330.4784">&#x00b7;&#x00b7;&#x00b7;</tspan></text>
<path transform="matrix(.7195416,0,0,.7195416,115.50566,209.74637)" stroke-width="1" stroke-linecap="butt" stroke-miterlimit="10" stroke-linejoin="miter" fill="none" stroke="#000000" d="M284.14-225.04 313.08-225.01"/>
<path transform="matrix(.7195416,0,0,.7195416,115.50566,209.74637)" d="M319.08-225 313.08-223.01V-227.01L319.08-225Z"/>
<path transform="matrix(.7195416,0,0,.7195416,115.50566,209.74637)" stroke-width="1" stroke-linecap="butt" stroke-miterlimit="10" stroke-linejoin="miter" fill="none" stroke="#000000" d="M319.08-225 313.08-223.01V-227.01L319.08-225Z"/>
<path transform="matrix(.7195416,0,0,.7195416,115.50566,209.74637)" stroke-width="1" stroke-linecap="butt" stroke-miterlimit="10" stroke-linejoin="miter" fill="none" stroke="#ae4132" d="M320.33-224.72 354.7-224.7"/>
<path transform="matrix(.7195416,0,0,.7195416,115.50566,209.74637)" d="M344.72-230.63H354.69V-220.66H344.72Z" fill="#fad9d5"/>
<path transform="matrix(.7195416,0,0,.7195416,115.50566,209.74637)" d="M346.72-231.13H347.72V-230.13H346.72V-231.13ZM348.72-231.13H349.72V-230.13H348.72V-231.13ZM350.72-231.13H351.72V-230.13H350.72V-231.13ZM352.72-231.13H353.72V-230.13H352.72V-231.13ZM355.19-230.6V-229.6H354.19V-230.6H355.19ZM355.19-228.6V-227.6H354.19V-228.6H355.19ZM355.19-226.6V-225.6H354.19V-226.6H355.19ZM355.19-224.6V-223.6H354.19V-224.6H355.19ZM355.19-222.6V-221.6H354.19V-222.6H355.19ZM354.63-220.16H353.63V-221.16H354.63V-220.16ZM352.63-220.16H351.63V-221.16H352.63V-220.16ZM350.63-220.16H349.63V-221.16H350.63V-220.16ZM348.63-220.16H347.63V-221.16H348.63V-220.16ZM346.63-220.16H345.63V-221.16H346.63V-220.16ZM344.22-220.75V-221.75H345.22V-220.75H344.22ZM344.22-222.75V-223.75H345.22V-222.75H344.22ZM344.22-224.75V-225.75H345.22V-224.75H344.22ZM344.22-226.75V-227.75H345.22V-226.75H344.22ZM344.22-228.75V-229.75H345.22V-228.75H344.22ZM344.72-231.13H345.72V-230.13H344.72V-231.13Z"/>
</g>
</svg>
